<svg id="Layer_1" data-name="Layer 1" xmlns="http://www.w3.org/2000/svg" viewBox="0 0 420 175.36">
  <g>
    <g>
      <path d="M237.16,130.93a5.43,5.43,0,0,1,.21-1.5,3.63,3.63,0,0,1,.64-1.29,3.19,3.19,0,0,1,1.11-.89,3.42,3.42,0,0,1,1.57-.34,3.52,3.52,0,0,1,1.68.39,4.39,4.39,0,0,1,1.27,1l-.89.79a2.77,2.77,0,0,0-1-.8,2.66,2.66,0,0,0-1-.2,2.11,2.11,0,0,0-1.78.85,2.56,2.56,0,0,0-.42.9,4,4,0,0,0,0,2.11,2.79,2.79,0,0,0,.42.91,2.45,2.45,0,0,0,.73.63,2.13,2.13,0,0,0,1.05.24,2.69,2.69,0,0,0,1-.22,2.74,2.74,0,0,0,1-.82l.89.79a4.33,4.33,0,0,1-1.27,1.06,3.26,3.26,0,0,1-1.68.4,3.21,3.21,0,0,1-2.68-1.26,3.9,3.9,0,0,1-.64-1.29,5.5,5.5,0,0,1-.21-1.51Z" transform="translate(0 0)" style="fill: #25282a"/>
      <path d="M252.37,135h-.54a3.94,3.94,0,0,1-1-.29,3.28,3.28,0,0,1-.83-.56,2.44,2.44,0,0,1-.56-.82,2.87,2.87,0,0,1-.24-1V127.1h1.23v5.14a1.54,1.54,0,0,0,.14.7,1.41,1.41,0,0,0,.38.49,1.66,1.66,0,0,0,.55.31,3.16,3.16,0,0,0,.68.14h.47a3.16,3.16,0,0,0,.68-.14,1.47,1.47,0,0,0,.56-.31,1.41,1.41,0,0,0,.38-.49,1.55,1.55,0,0,0,.15-.7V127.1h1.22v5.26a2.91,2.91,0,0,1-.23,1,2.63,2.63,0,0,1-.57.82,2.84,2.84,0,0,1-.84.57,3.46,3.46,0,0,1-1,.28h-.63Z" transform="translate(0 0)" style="fill: #25282a"/>
      <path d="M264,128.24V135h-1.22v-6.71H260.9V127h5v1.23Z" transform="translate(0 0)" style="fill: #25282a"/>
      <path d="M270.93,135V127h1.22v6.67h3.7v1.23Z" transform="translate(0 0)" style="fill: #25282a"/>
      <path d="M280.92,135V127h4.89v1.23h-3.67v2h3.35v1.22h-3.35v2.22h3.71v1.23Z" transform="translate(0 0)" style="fill: #25282a"/>
      <path d="M293.69,131.74h-1.42V135h-1.22V127h3a2.22,2.22,0,0,1,.91.19,2.42,2.42,0,0,1,1.26,1.26,2.31,2.31,0,0,1-.22,2.22,2.26,2.26,0,0,1-1,.86l1.79,3.42h-1.38Zm-1.42-1.23h1.79a1,1,0,0,0,.44-.08,1.26,1.26,0,0,0,.36-.24,1.45,1.45,0,0,0,.25-.36,1.17,1.17,0,0,0,.09-.45,1.06,1.06,0,0,0-.33-.8,1.11,1.11,0,0,0-.81-.34h-1.79Z" transform="translate(0 0)" style="fill: #25282a"/>
      <path d="M305.79,129.87l2-2.86h1.46l-2.86,4.22V135h-1.22v-3.72L302.31,127h1.46Z" transform="translate(0 0)" style="fill: #25282a"/>
      <path d="M321.6,130.93a5.43,5.43,0,0,1,.21-1.5,3.65,3.65,0,0,1,.65-1.29,3.19,3.19,0,0,1,1.11-.89,3.78,3.78,0,0,1,3.24,0,4.31,4.31,0,0,1,1.28,1l-.9.79a2.52,2.52,0,0,0-1-.8,2.66,2.66,0,0,0-1-.2,2.16,2.16,0,0,0-1,.23,2.09,2.09,0,0,0-.73.62,3,3,0,0,0-.43.9,4.43,4.43,0,0,0,0,2.11,3,3,0,0,0,.43.91,2.11,2.11,0,0,0,.73.63,2.17,2.17,0,0,0,1,.24,2.4,2.4,0,0,0,2-1l.9.79a4.6,4.6,0,0,1-1.27,1.06,3.78,3.78,0,0,1-3.25.06,3.28,3.28,0,0,1-1.11-.92,3.65,3.65,0,0,1-.65-1.29,5.5,5.5,0,0,1-.21-1.51Z" transform="translate(0 0)" style="fill: #25282a"/>
      <path d="M336.82,135h-.55a3.94,3.94,0,0,1-1-.29,3,3,0,0,1-.83-.56,2.63,2.63,0,0,1-.57-.82,2.7,2.7,0,0,1-.23-1V127.1h1.22v5.14a1.68,1.68,0,0,0,.14.7,1.51,1.51,0,0,0,.38.49,1.82,1.82,0,0,0,.56.31,3.16,3.16,0,0,0,.68.14h.46a3.25,3.25,0,0,0,.69-.14,1.82,1.82,0,0,0,.56-.31,1.41,1.41,0,0,0,.38-.49,1.68,1.68,0,0,0,.14-.7V127.1h1.23v5.26a2.87,2.87,0,0,1-.24,1,3.06,3.06,0,0,1-.56.82,2.84,2.84,0,0,1-.84.57,3.47,3.47,0,0,1-1.05.28h-.57Z" transform="translate(0 0)" style="fill: #25282a"/>
      <path d="M345.34,135V127h1.22v6.67h3.7v1.23Z" transform="translate(0 0)" style="fill: #25282a"/>
      <path d="M358.44,128.24V135h-1.22v-6.71h-1.89V127h5v1.23Z" transform="translate(0 0)" style="fill: #25282a"/>
      <path d="M368.79,135h-.54a3.83,3.83,0,0,1-1-.29,3.16,3.16,0,0,1-.84-.56,3.06,3.06,0,0,1-.56-.82,2.7,2.7,0,0,1-.23-1V127.1h1.22v5.14a1.68,1.68,0,0,0,.14.7,1.41,1.41,0,0,0,.38.49,1.82,1.82,0,0,0,.56.31,3.16,3.16,0,0,0,.68.14h.4a3.25,3.25,0,0,0,.69-.14,1.82,1.82,0,0,0,.56-.31,1.41,1.41,0,0,0,.38-.49,1.68,1.68,0,0,0,.14-.7V127.1H372v5.26a2.7,2.7,0,0,1-.23,1,2.63,2.63,0,0,1-.57.82,2.66,2.66,0,0,1-.84.57,3.46,3.46,0,0,1-1,.28h-.57Z" transform="translate(0 0)" style="fill: #25282a"/>
      <path d="M380.08,131.74h-1.41V135h-1.23V127h3a2.36,2.36,0,0,1,1.66.7,2.76,2.76,0,0,1,.51.75,2.39,2.39,0,0,1,.18.92,2.2,2.2,0,0,1-.39,1.29,2.26,2.26,0,0,1-1,.86l1.79,3.42h-1.38Zm-1.41-1.23h1.79a1.11,1.11,0,0,0,.44-.08,1.21,1.21,0,0,0,.35-.24,1,1,0,0,0,.25-.36,1.17,1.17,0,0,0,.09-.45,1.06,1.06,0,0,0-.33-.8,1.1,1.1,0,0,0-.8-.34h-1.79Z" transform="translate(0 0)" style="fill: #25282a"/>
      <path d="M388.42,135V127h4.9v1.23h-3.68v2H393v1.22h-3.35v2.22h3.71v1.23Z" transform="translate(0 0)" style="fill: #25282a"/>
    </g>
    <g>
      <path d="M198.27,24.68q6.69-1.44,13.19-2.62l13.19-2.38a5.56,5.56,0,0,0,2.23-.85,4.84,4.84,0,0,0,.86-1,3.24,3.24,0,0,1,.85-.92,4.37,4.37,0,0,1,2.36-.4,11.25,11.25,0,0,1,2.24.2c.61.13,1.22.28,1.83.46a18.55,18.55,0,0,0,2,.46,10.62,10.62,0,0,0,2.76.06q14.43-1.44,29.07-2.55t29.08-.86a3.72,3.72,0,0,1,3.07,1.4c.57.83.51,1.9-.19,3.22-1.23,2.27-2.44,3.53-3.61,3.8s-2.91,0-5.2-.93A33.83,33.83,0,0,0,287,20.53a44.19,44.19,0,0,0-5.51-.59c-1.89-.09-3.75-.11-5.58-.07s-3.59.07-5.25.07c-.79,0-2.15.06-4.07.19s-4.09.31-6.5.53-5,.44-7.61.65-5.12.44-7.36.66-4.13.44-5.71.66a9.93,9.93,0,0,0-2.75.59,2.31,2.31,0,0,0-.33,1.11c0,.49-.07.9-.07,1.25q-1,8.27-1.77,16.87t-1.38,17a178.54,178.54,0,0,0-.59,21.07q.33,10.42-.19,21.06-.14,2.37-.59,6.57t-1,8.73q-.52,4.53-1.05,8.59c-.35,2.72-.61,4.86-.79,6.44a26.48,26.48,0,0,0-.32,4.79,30.66,30.66,0,0,1-.2,4.39,6.7,6.7,0,0,1-1.77,3.75,14.05,14.05,0,0,1-3.35,2.69,4.6,4.6,0,0,1-2.36.72,1.67,1.67,0,0,1-1.38-.79,4.16,4.16,0,0,1-.59-1.84,19.41,19.41,0,0,1-.13-2.29q.39-6.71,1.05-15.43t1.37-17.78q.74-9.06,1.38-17.79t1.18-15.42c.18-2.63.4-5.35.66-8.14a67.3,67.3,0,0,0,.26-8.4,39.89,39.89,0,0,0-1.05-8.14,21.17,21.17,0,0,0-3.28-7.35,30.13,30.13,0,0,0-9.45-8.2,35,35,0,0,0-12-3.74,46.68,46.68,0,0,0-5-.46h-4.46a38.82,38.82,0,0,0-4.4.33c-1.49.17-3.11.35-4.86.53a3.49,3.49,0,0,1-2.36-.2,1.38,1.38,0,0,1-.66-1.18,2.37,2.37,0,0,1,.66-1.51,6.91,6.91,0,0,1,1.44-1.31,20.38,20.38,0,0,1,3.35-1.06c1.71-.43,3.59-.88,5.65-1.37s4.06-.9,6-1.25,3.28-.61,4.07-.79Zm28.48,0a3.28,3.28,0,0,0-1.7-.13,16.4,16.4,0,0,1-1.71.13h-.13q-5.39.8-11,1.77t-11,2c-1.49.26-2.54.46-3.15.59s-.86.22-.72.26a10.52,10.52,0,0,0,1.37.2c.79.09,1.84.26,3.15.52a46.7,46.7,0,0,1,7.62,2,27.65,27.65,0,0,1,9.84,6.3c1.49,1.44,3.37,3.13,5.65,5a13.07,13.07,0,0,0,.65-3.15c.27-1.84.48-3.83.66-6s.31-4.18.39-6.1a21,21,0,0,0,0-3.55Z" transform="translate(0 0)" style="fill: #25282a"/>
      <path d="M269,115.24a26.06,26.06,0,0,1-6.89-.14,18.32,18.32,0,0,1-6.1-2,14.34,14.34,0,0,1-4.66-4.07,13.59,13.59,0,0,1-2.43-6.37,19.25,19.25,0,0,1,.46-8.27,18.63,18.63,0,0,1,3.61-7,17.2,17.2,0,0,1,14.17-6.3,13.5,13.5,0,0,1,3.09.46,14.08,14.08,0,0,1,3.48,1.31A5.65,5.65,0,0,1,276,85a2.43,2.43,0,0,1-.46,2.82c-.7.88-1.33,1.25-1.9,1.12A5.14,5.14,0,0,1,271.8,88c-.65-.48-1.38-1-2.16-1.51a4.14,4.14,0,0,0-2.76-.66,6.8,6.8,0,0,0-4.4,1.91A14.65,14.65,0,0,0,259.33,92a20.18,20.18,0,0,0-1.77,5.12,12.87,12.87,0,0,0-.26,4.33,11.88,11.88,0,0,0,2.89,6.24,8,8,0,0,0,6.3,2.69A22.89,22.89,0,0,0,275,108.8a38.69,38.69,0,0,0,7.68-4.07,55.28,55.28,0,0,0,6.89-5.51q3.23-3,6.11-6,2-2.1,4.4-4.92a34.43,34.43,0,0,1,4.39-4.4,6,6,0,0,1,1.25-.78,1.83,1.83,0,0,1,1.38,0c.79.26,1.18.7,1.18,1.31a4.08,4.08,0,0,1-.53,1.9,12.66,12.66,0,0,1-1.24,1.9,15.62,15.62,0,0,1-1.12,1.32q-3.68,4.2-7.61,8.46a79.21,79.21,0,0,1-8.4,7.88,54,54,0,0,1-9.52,6.17A31.72,31.72,0,0,1,269,115.24Z" transform="translate(0 0)" style="fill: #25282a"/>
      <path d="M307.09,124.42a3.88,3.88,0,0,1-3.41-2.29,19.53,19.53,0,0,1-2-5.84,64.25,64.25,0,0,1-1.05-7.81q-.33-4.28-.33-8.34c0-2.71,0-5.19.07-7.42s.06-3.87.06-4.92q.13-5.64.27-14.18T301.35,56q.52-9,1.38-17.26a68.71,68.71,0,0,1,2.43-13.19,30.6,30.6,0,0,1,1.31-3,14.51,14.51,0,0,1,1.87-2.9,9.31,9.31,0,0,1,2.49-2.1,5.55,5.55,0,0,1,3.22-.65h.39l.39.13c2.37.35,4,2.08,4.79,5.18a40.56,40.56,0,0,1,1.05,11.62,112.65,112.65,0,0,1-1.57,15.22q-1.38,8.27-3,15.88t-3.17,13.52q-1.51,5.91-2.17,8.27c-.43,1.58-.92,3.24-1.44,5s-1,3.37-1.31,4.86a20.71,20.71,0,0,0-.4,3.93c-.08,2-.11,4.09-.06,6.24a39.36,39.36,0,0,0,.52,5.84c.31,1.75.81,2.67,1.51,2.76.53.08,1.07-.53,1.64-1.84s1.18-3,1.84-4.92,1.38-4.16,2.17-6.57,1.64-4.66,2.56-6.76a25.41,25.41,0,0,1,3.08-5.38,5.69,5.69,0,0,1,3.68-2.49,3.89,3.89,0,0,1,3.93,1.38,13.29,13.29,0,0,1,2.3,4.33,40.61,40.61,0,0,1,1.38,5.31,14.13,14.13,0,0,0,1.44,4.34c.79,1.4,1.75,2.07,2.89,2a6.81,6.81,0,0,0,3.61-1.38,20,20,0,0,0,3.81-3.54q1.9-2.23,3.61-4.53c1.14-1.53,2.14-3,3-4.27s1.48-2.27,1.83-2.89c.79-1.22,1.47-2.25,2-3.08a5.75,5.75,0,0,1,1.77-1.77c.79-.44,1.45-.22,2,.65s.31,2.06-.66,3.55c-1.48,2.27-3,4.53-4.66,6.76s-3.3,4.4-5.05,6.5a68.76,68.76,0,0,1-4.92,5.18,17.71,17.71,0,0,1-5.45,3.68,6.65,6.65,0,0,1-5.32,0c-1.7-.75-3.21-2.78-4.52-6.11a17.29,17.29,0,0,1-.66-2.23c-.26-1-.57-2.1-.92-3.15a13.73,13.73,0,0,0-1.18-2.69c-.44-.74-.92-1.07-1.45-1-.35,0-.74.39-1.18,1.18a22.54,22.54,0,0,0-1.24,2.69c-.4,1-.77,2-1.12,2.89s-.57,1.51-.66,1.77c-.43,1.22-1,3-1.77,5.38a66.63,66.63,0,0,1-2.69,7.09,36.2,36.2,0,0,1-3.48,6.23c-1.27,1.8-2.64,2.69-4.13,2.69Zm1.44-47.12c0,.26,0,.53-.06.79a5.62,5.62,0,0,0-.07.92c0,.26,0,.41.13.46s.22-.16.4-.6a40.24,40.24,0,0,0,1.9-6.16c.66-2.72,1.31-5.76,2-9.13s1.25-6.91,1.77-10.63.94-7.26,1.25-10.63.48-6.41.52-9.13a26.61,26.61,0,0,0-.46-6.3c-.43-1.48-1-2.23-1.77-2.23s-1.38.66-1.9,2a31,31,0,0,0-.86,4.79c-.3,2.41-.59,5.3-.85,8.67s-.5,7-.72,10.76-.42,7.46-.59,11-.33,6.65-.46,9.45-.2,4.81-.2,6Z" transform="translate(0 0)" style="fill: #25282a"/>
      <path d="M363.93,74.41a4.94,4.94,0,0,1-1.12,3.87,4.47,4.47,0,0,1-2.89,1.4,5.69,5.69,0,0,1-3.21-.72,4.23,4.23,0,0,1-2.1-2.43,4.42,4.42,0,0,1,.32-4,5.43,5.43,0,0,1,2.89-2.36,4.72,4.72,0,0,1,3.61.26c1.23.57,2.07,1.9,2.5,4Zm35.31,10.27a2.52,2.52,0,0,1,1.31-1,2.24,2.24,0,0,1,1.38-.07,1.08,1.08,0,0,1,.72.86,2.49,2.49,0,0,1-.53,1.7q-2.49,3.94-6.89,9.59a97.78,97.78,0,0,1-9.78,10.76,60.89,60.89,0,0,1-11.35,8.6,20.1,20.1,0,0,1-11.62,3.08c-3.59-.26-6.23-1.2-7.94-2.82a11.53,11.53,0,0,1-3.35-6,26.39,26.39,0,0,1-.46-7.68c.22-2.76.55-5.4,1-7.94.17-1.23.33-2.47.46-3.74a15.43,15.43,0,0,1,.79-3.61,8.68,8.68,0,0,1,1.7-3,6.21,6.21,0,0,1,3.21-1.73c1.75-.26,2.84-.17,3.28.26s.57,1.54.39,3.29a53.64,53.64,0,0,1-1.18,6.17,47.86,47.86,0,0,0-1.05,6.3c-.17,1-.33,2.38-.46,4a28.73,28.73,0,0,0,0,4.73,10.7,10.7,0,0,0,1.12,4.06,3.79,3.79,0,0,0,3.15,2,15.15,15.15,0,0,0,7.86-.81,32.33,32.33,0,0,0,7.36-3.81,53.28,53.28,0,0,0,6.3-5.11q2.88-2.76,4.85-4.86a45.63,45.63,0,0,0,5.25-6.43Q397.4,87.68,399.24,84.68Z" transform="translate(0 0)" style="fill: #25282a"/>
    </g>
    <path d="M17.33,40.28v69.24l77.3,38,56.69-38V40.28L81.4,15Zm108.3,13.8L67.53,31.54l14-5.54,57.69,20.87ZM97.72,68.85,35,44.39l18.43-7.28L113.6,60.45Zm-3.88,66.83-66.2-32.54V47.29l.29-.12,66.7,26v61.92ZM53.4,96.42l-5.15-2V80.33l-5.06-1.65,7.63-9.76,7.76,14.84L53.4,82ZM74,105.28l-5.16-2V87.77l-5.2-1.72,7.77-10L79,91.16l-5-1.67Zm5.15,14.65-36.07-17V96.56l36.07,17Z" transform="translate(0 0)" style="fill: #25282a;fill-rule: evenodd"/>
    <path d="M0,169.22V6.14A6.16,6.16,0,0,1,6.13,0H75.55L67.77,3.08H6.13a2.69,2.69,0,0,0-3,2.34,2.43,2.43,0,0,0,0,.66V32.8l-.26.51-.25.55-.23.56-.2.56L2,35.55l-.17.58-.14.58-.12.59-.1.59-.08.59-.06.6v71.56l.11,1.11.2,1.1.27,1.09L2.25,115l.42,1,.46,1v52.23a2.69,2.69,0,0,0,2.34,3,2.43,2.43,0,0,0,.66,0H413.87a2.69,2.69,0,0,0,3-2.34,2.43,2.43,0,0,0,0-.66V92.33l.58-1.51.53-1.7.27-1,.2-1,.14-1,.08-1v-1l-.05-1-.1-1-.18-1-.23-1-.29-1-.35-.94-.41-.92-.21-.39V6.14a2.69,2.69,0,0,0-2.34-3,2.43,2.43,0,0,0-.66,0h-91l-2.89-1.31-.4-.13L317,1l-6.49-1h103.4A6.16,6.16,0,0,1,420,6.14V169.22a6.16,6.16,0,0,1-6.13,6.14H6.13A6.16,6.16,0,0,1,0,169.22ZM230.37.45l-2.06.21L226,1.05l-1.43.31L217.89,3.1H95.82L88,.25,87.33,0h155.4Z" transform="translate(0 0)" style="fill: #25282a"/>
  </g>
</svg>
